<?xml version="1.0" encoding="UTF-8" standalone="no"?>

<svg width="100%" height="100%" viewBox="0 0 601 273" version="1.1" xmlns="http://www.w3.org/2000/svg" xmlns:xlink="http://www.w3.org/1999/xlink" xml:space="preserve" xmlns:serif="http://www.serif.com/" style="fill-rule:evenodd;clip-rule:evenodd;stroke-linejoin:round;stroke-miterlimit:2;">
    <g id="Plan-de-travail1" xmlns:www.serif.com="http://www.serif.com/" xmlns:www.serif.com="http://www.serif.com/" www.serif.com:id="Plan de travail1" transform="matrix(0.944969,0,0,0.98913,0,0)">
        <rect x="0" y="-0" width="636" height="276" style="fill:none;"></rect>
        <g transform="matrix(0.910001,0,0,0.869372,-2061.792484,-801.775475)">
            <g transform="matrix(0.837276,-0.52492,0.329082,0.618942,944.449471,352.451771)">
                <path d="M1061.454,2200.911C1031.201,2212.484 997.454,2216.567 962.58,2211.011C885.053,2198.657 818.705,2137.42 803.167,2054.814C790.137,1985.547 815.2,1913.668 871.697,1868.375C925.213,1825.471 981.642,1826.497 992.934,1826.552C1002.913,1826.5 1065.925,1824.798 1122.03,1875.069C1175.245,1922.75 1196.65,1994.712 1181.323,2062.4C1178.881,2073.185 1175.552,2083.614 1171.422,2093.612C1169.706,2092.759 1167.991,2091.983 1166.276,2091.284C1178.52,2063.195 1184.017,2031.645 1180.81,1998.745C1171.397,1902.161 1089.48,1829.326 994.795,1827.637L992.987,1827.607C983.555,1827.773 921.884,1827.37 867.074,1876.816C816.69,1922.271 794.622,1990.068 808.015,2055.232C826.75,2146.395 911.875,2212.397 1009.641,2203.795C1026.424,2202.318 1042.545,2198.673 1057.731,2193.152C1058.747,2195.694 1059.98,2198.283 1061.454,2200.911ZM1161.864,2113.469C1150.345,2134.284 1135.159,2152.703 1117.237,2167.879C1115.905,2165.53 1114.732,2163.252 1113.718,2161.045C1130.529,2147.11 1144.841,2130.348 1155.936,2111.536C1157.911,2112.055 1159.887,2112.699 1161.864,2113.469ZM1073.83,2186.439C1082.154,2182.506 1090.136,2177.989 1097.725,2172.942C1096.08,2176.047 1095.347,2179.02 1095.525,2181.859C1095.564,2182.478 1095.632,2183.089 1095.728,2183.694C1090.156,2187.227 1084.397,2190.48 1078.472,2193.434C1076.875,2191.424 1075.549,2189.492 1074.496,2187.637L1074.482,2187.612C1074.255,2187.218 1074.038,2186.827 1073.83,2186.439Z" style="fill:rgb(183,132,69);"></path>
            </g>
            <g transform="matrix(0.692245,-0.433994,0.272079,0.51173,1203.494823,478.524441)">
                <path d="M1035.346,2209.717C998.469,2218.04 959.128,2215.46 922.213,2200.75C867.396,2178.906 818.542,2129.034 803.648,2059.756C790.198,1997.193 807.881,1926.777 860.223,1877.832C877.546,1861.633 897.932,1848.586 920.428,1839.689C953.748,1826.512 981.922,1826.381 992.929,1826.461C1002.31,1826.391 1067.699,1824.251 1124.729,1877.076C1162.948,1912.477 1183.688,1960.074 1186.321,2008.769C1184.522,2007.34 1182.701,2006.041 1180.859,2004.872C1180.571,2000.35 1180.12,1995.797 1179.5,1991.219C1173.871,1949.671 1153.368,1907.982 1117.964,1876.382C1063.243,1827.54 1002.121,1827.882 992.992,1827.697C984.275,1827.872 920.25,1827.371 864.722,1879.477C814.169,1926.915 794.165,1996.484 809.881,2061.261C831.156,2148.949 914.504,2211.211 1009.553,2202.866C1014.743,2202.41 1019.872,2201.747 1024.931,2200.884L1035.346,2209.717Z" style="fill:rgb(183,132,69);"></path>
            </g>
            <g transform="matrix(0.511517,-0.320689,0.201046,0.37813,1526.297312,635.955103)">
                <path d="M982.543,2215.968C933.863,2213.227 885.96,2191.974 849.808,2152.2C774.98,2069.873 782.146,1939.72 869.448,1868.805C923.949,1824.534 981.878,1826.145 992.92,1826.282C1000.902,1826.184 1071.272,1823.042 1130.046,1881.211C1163.076,1913.9 1181.782,1955.603 1186.376,1998.606C1184.499,2000.024 1182.659,2001.598 1180.854,2003.329C1180.542,2003.628 1180.234,2003.929 1179.931,2004.231C1176.794,1956.57 1155.229,1909.937 1115.996,1875.529C1062.028,1828.198 1002.531,1828.115 993.001,1827.877C985.959,1828.054 916.977,1827.319 860.19,1884.951C784.687,1961.578 787.586,2084.575 868.556,2155.447C899.827,2182.818 938.1,2197.948 977.136,2201.079C978.193,2206.479 980.045,2211.553 982.543,2215.968ZM1174.316,2090.932C1163.543,2118.987 1146.187,2145.028 1122.315,2166.554C1094.517,2191.621 1061.383,2207.21 1026.935,2213.32L1012.045,2200.691C1059.71,2195.804 1105.732,2173.043 1138.661,2132.853C1150.833,2117.997 1160.308,2101.793 1167.125,2084.834L1174.316,2090.932Z" style="fill:rgb(183,132,69);"></path>
            </g>
            <g transform="matrix(0.285839,-0.276732,0.18772,0.193897,1774.969765,965.288028)">
                <path d="M992.96,1827.079C1098.354,1827.079 1183.921,1912.646 1183.921,2018.04C1183.921,2123.434 1098.354,2209 992.96,2209C887.566,2209 802,2123.434 802,2018.04C802,1912.646 887.566,1827.079 992.96,1827.079ZM992.96,1993.877C974,1992.734 964.013,2010.254 967.994,2025.714C973.118,2045.614 996.697,2052.841 1010.877,2038.373C1026.954,2021.969 1017.583,1992.356 992.96,1993.877Z" style="fill:rgb(10,19,55);"></path>
            </g>
            <g transform="matrix(0.285839,-0.276732,0.18772,0.193897,1774.969765,965.288028)">
                <path d="M992.96,1827.079C997.62,1827.041 1075.541,1822.496 1136.103,1888.478C1208.679,1967.55 1202.11,2091.46 1123.275,2164.019C1043.602,2237.349 920.757,2230.957 848.748,2149.69C773.478,2064.744 785.221,1931.868 877.213,1863.989C928.637,1826.044 980.66,1826.938 992.96,1827.079C901.072,1829.302 835.415,1890.959 813.366,1960.501C788.651,2038.448 817.544,2123.397 885.919,2170.079C970.397,2227.754 1090.829,2208.663 1150.725,2118.413C1202.171,2040.896 1187.851,1933.096 1111.04,1870.416C1059.249,1828.153 1004.638,1827.328 992.96,1827.079Z" style="fill:rgb(183,132,69);"></path>
            </g>
            <g transform="matrix(0.036168,-0.035015,0.023752,0.024534,2353.776156,1067.054702)">
                <path d="M992.957,1827.078C1189.364,1812.17 1264.759,2049.913 1136.164,2182.406C1017.483,2304.684 819.904,2233.547 789.894,2063.621C769.059,1945.641 847.35,1816.276 992.957,1827.078C810.977,1849.936 757.637,2063.548 895.21,2147.474C1014.757,2220.403 1188.925,2135.268 1166.058,1985.797C1157.762,1931.569 1110.179,1841.994 992.957,1827.078Z" style="fill:rgb(183,132,69);"></path>
            </g>
            <g transform="matrix(1.082784,0,0,1.082784,-684.461958,73.950741)">
                <path d="M2996.421,890.829C2990.69,890.829 2986.542,889.35 2983.868,886.734C2980.859,883.789 2980.23,879.61 2982.78,874.141C2985.034,869.307 2988.58,865.693 2993.423,863.306C2998.063,861.019 3003.012,859.873 3008.272,859.873C3013.686,859.873 3017.799,861.223 3020.681,863.684C3023.996,866.514 3024.78,870.752 3022.107,876.483C3019.938,881.134 3016.339,884.734 3011.266,887.238C3006.402,889.639 3001.452,890.829 2996.421,890.829ZM2985.401,979.16L2980.814,988.995C2980.359,989.971 2979.38,990.594 2978.303,990.594L2922.991,990.594C2922.045,990.594 2921.163,990.111 2920.654,989.312C2920.146,988.514 2920.08,987.511 2920.48,986.652L2925.066,976.818C2925.521,975.842 2926.501,975.218 2927.578,975.218L2929.545,975.218C2932.014,975.218 2934.352,974.501 2936.568,973.093C2938.898,971.613 2940.897,968.854 2942.723,964.937L2963.342,920.719C2964.104,919.084 2964.581,917.705 2964.711,916.561C2964.771,916.041 2964.824,915.612 2964.596,915.315C2963.836,914.324 2962.473,914.039 2960.657,914.039L2957.588,914.039C2956.641,914.039 2955.76,913.556 2955.251,912.757C2954.742,911.958 2954.677,910.955 2955.077,910.097L2959.663,900.262C2960.118,899.286 2961.097,898.662 2962.174,898.662L3006.628,898.662C3007.575,898.662 3008.456,899.146 3008.965,899.944C3009.474,900.743 3009.54,901.746 3009.14,902.604L2978.688,967.908C2977.825,969.758 2977.276,971.308 2977.09,972.577C2977.003,973.176 2976.905,973.654 2977.137,973.979C2977.847,974.974 2979.22,975.218 2981.08,975.218L2982.889,975.218C2983.836,975.218 2984.717,975.701 2985.226,976.5C2985.735,977.298 2985.801,978.301 2985.401,979.16Z" style="fill:rgb(10,19,55);"></path>
            </g>
            <g transform="matrix(1.082784,0,0,1.082784,-684.461958,73.950741)">
                <path d="M3020.056,992.168C3010.629,992.168 3003.644,991.196 2999.085,989.378C2993.725,987.286 2990.771,984.226 2989.848,980.599C2988.966,977.132 2989.417,973.293 2991.369,969.107C2993.821,963.85 2997.454,960.14 3002.218,957.929C3006.767,955.819 3011.607,954.761 3016.74,954.761C3017.687,954.761 3018.569,955.244 3019.077,956.043C3019.586,956.842 3019.652,957.845 3019.252,958.703C3017.671,962.092 3016.693,964.983 3016.369,967.392C3016.122,969.227 3016.229,970.706 3016.938,971.795C3018.536,974.247 3021.599,975.218 3025.927,975.218C3030.441,975.218 3034.012,974.493 3036.606,972.881C3039.028,971.377 3040.738,969.704 3041.64,967.769C3042.433,966.069 3042.44,964.703 3041.188,963.74L3041.17,963.726C3039.003,962.028 3035.247,960.41 3029.952,958.761L3029.894,958.742C3020.73,955.665 3014.634,951.702 3011.445,947.115C3008.079,942.274 3008.154,935.136 3012.529,925.754C3017.261,915.607 3024.423,908.174 3033.992,903.435C3043.358,898.797 3053.984,896.459 3065.879,896.459C3073.563,896.459 3079.443,897.32 3083.535,898.935L3083.583,898.954C3088.276,900.909 3091.014,903.555 3092.093,906.554C3093.211,909.661 3093.055,912.804 3091.574,915.98C3089.497,920.434 3086.324,923.77 3082.065,925.998C3078.029,928.109 3072.684,929.224 3066.009,929.224C3065.062,929.224 3064.181,928.741 3063.672,927.942C3063.163,927.144 3063.097,926.141 3063.498,925.282C3064.573,922.976 3065.221,920.959 3065.385,919.212C3065.508,917.899 3065.355,916.784 3064.793,915.892C3063.53,913.887 3061.19,913.095 3057.952,913.095C3055.026,913.095 3052.361,913.642 3049.964,914.762C3047.831,915.759 3046.274,917.288 3045.307,919.363C3044.526,921.037 3044.325,922.367 3045.353,923.319L3045.425,923.388C3046.163,924.124 3047.414,924.864 3049.129,925.686C3051.138,926.648 3053.681,927.685 3056.743,928.794C3062.166,930.673 3066.54,932.789 3069.88,935.11C3073.799,937.791 3076.212,941.257 3077.18,945.463C3078.098,949.458 3077.239,954.652 3074.286,960.985C3069.951,970.282 3063.105,977.82 3053.725,983.576C3044.431,989.278 3033.215,992.168 3020.056,992.168Z" style="fill:rgb(10,19,55);"></path>
            </g>
            <g transform="matrix(1.082784,0,0,1.082784,-684.461958,73.950741)">
                <path d="M3112.977,992.168C3097.859,992.168 3088.006,987.749 3083.149,979.559C3078.368,971.499 3079.354,959.276 3086.951,942.985C3094.261,927.308 3103.694,915.647 3115.179,907.944C3126.727,900.199 3140.186,896.302 3155.568,896.302C3170.734,896.302 3180.623,900.692 3185.504,908.819C3190.314,916.827 3189.347,929.028 3181.747,945.327C3174.438,961.001 3164.994,972.688 3153.486,980.444C3141.912,988.244 3128.414,992.168 3112.977,992.168ZM3118.612,975.218C3122.749,975.218 3126.699,972.542 3130.715,967.599C3135.189,961.958 3139.919,953.747 3144.937,942.985C3149.949,932.238 3152.831,924.168 3153.489,918.739C3153.7,916.832 3153.629,915.372 3152.906,914.417C3152.303,913.622 3151.242,913.41 3149.86,913.41C3145.746,913.41 3141.909,915.995 3138.113,920.78L3138.106,920.788C3133.679,926.324 3128.961,934.511 3123.917,945.327C3118.899,956.088 3116.005,964.192 3115.326,969.674L3115.321,969.715C3115.006,971.983 3115.009,973.633 3116.021,974.541C3116.614,975.072 3117.5,975.218 3118.612,975.218Z" style="fill:rgb(10,19,55);"></path>
            </g>
            <g transform="matrix(1.082784,0,0,1.082784,-684.461958,73.950741)">
                <path d="M3278.578,915.597L3278.587,915.694C3278.932,919.413 3277.959,923.927 3275.501,929.198C3271.119,938.596 3264.46,946.158 3255.518,951.88C3246.635,957.564 3235.452,960.46 3221.942,960.46C3220.862,960.46 3219.241,960.407 3217.078,960.299C3215.338,960.212 3213.996,960.08 3213.049,959.923C3212.225,960.27 3211.26,960.938 3210.111,961.858C3208.689,962.997 3207.651,964.185 3207.052,965.469L3207.019,965.543C3207.683,965.771 3208.497,965.855 3209.447,965.855L3228.802,965.855C3236.035,965.855 3241.806,966.693 3246.123,968.293C3251.033,970.113 3254.203,972.939 3255.797,976.578C3257.807,981.169 3257.288,987.322 3253.72,994.974C3248.922,1005.262 3240.863,1013.405 3229.489,1019.351C3218.367,1025.166 3204.108,1028.125 3186.692,1028.125C3174.763,1028.125 3165.95,1026.762 3160.231,1024.189C3155.768,1022.181 3153.018,1019.402 3151.786,1016.056C3150.493,1012.547 3150.846,1008.267 3153.184,1003.254C3155.754,997.741 3160.127,993.13 3166.364,989.483C3170.303,987.18 3174.572,985.526 3179.172,984.527C3178.695,984.09 3178.239,983.633 3177.806,983.157C3175.275,980.371 3174.815,976.27 3177.348,970.838C3179.289,966.674 3182.71,963.013 3187.694,959.935C3190.904,957.951 3194.589,956.012 3198.75,954.12C3196.218,952.323 3194.284,949.979 3192.935,947.104C3190.771,942.49 3191.322,935.977 3195.208,927.643C3199.903,917.575 3206.693,909.841 3215.555,904.42C3224.338,899.047 3235.569,896.302 3249.275,896.302C3253.787,896.302 3257.592,896.614 3260.693,897.219C3263.325,897.732 3265.731,898.549 3267.916,899.661C3271.609,897.096 3275.081,895.012 3278.328,893.403C3282.242,891.465 3286.626,890.48 3291.488,890.48C3296.642,890.48 3299.751,892.241 3301.167,894.961C3302.558,897.634 3302.57,900.843 3300.832,904.571C3299.358,907.733 3297.039,910.551 3293.841,912.997C3290.603,915.473 3286.291,916.793 3280.858,916.793C3279.945,916.793 3279.094,916.344 3278.578,915.597ZM3278.212,913.199C3278.248,913.081 3278.293,912.965 3278.346,912.851C3278.776,911.93 3279.074,911.13 3279.215,910.44C3279.262,910.207 3279.273,909.875 3279.276,909.738C3279.042,909.462 3278.84,909.24 3278.557,909.24C3278.003,909.24 3277.465,909.286 3276.945,909.382C3277.496,910.555 3277.919,911.827 3278.212,913.199ZM3226.654,944.139C3229.017,944.139 3231.085,943.518 3232.845,942.233C3234.813,940.796 3236.548,938.886 3238.068,936.521C3239.725,933.943 3241.306,931.035 3242.815,927.8C3244.319,924.575 3245.493,921.577 3246.332,918.806L3246.334,918.798C3247.002,916.612 3247.242,914.884 3246.75,913.595C3246.638,913.303 3246.353,913.168 3246.007,913.051C3245.424,912.855 3244.707,912.78 3243.861,912.78C3241.605,912.78 3239.579,913.48 3237.781,914.874C3235.697,916.49 3233.775,918.662 3231.989,921.369C3230.093,924.246 3228.415,927.249 3226.956,930.378C3224.917,934.75 3223.723,938.565 3223.432,941.844C3223.377,942.475 3223.378,942.999 3223.651,943.377C3224.161,944.084 3225.223,944.139 3226.654,944.139ZM3192.264,1011.646C3199.832,1011.646 3206.249,1010.629 3211.506,1008.538C3216.287,1006.636 3219.603,1003.899 3221.335,1000.185C3221.824,999.136 3221.976,998.218 3221.485,997.424C3221.306,997.134 3220.949,996.996 3220.52,996.851C3219.606,996.542 3218.423,996.417 3216.977,996.417L3196.206,996.417C3194.894,996.417 3193.301,996.709 3191.419,997.252C3189.552,997.791 3187.728,998.77 3185.934,1000.162C3184.165,1001.535 3182.752,1003.407 3181.658,1005.753C3181.06,1007.035 3180.709,1008.049 3181.071,1008.864C3181.248,1009.263 3181.634,1009.531 3182.126,1009.778C3184.677,1011.061 3188.064,1011.646 3192.264,1011.646Z" style="fill:rgb(10,19,55);"></path>
            </g>
            <g transform="matrix(1.082784,0,0,1.082784,-684.461958,73.950741)">
                <path d="M3296.773,992.168C3287.345,992.168 3280.36,991.196 3275.802,989.378C3270.442,987.286 3267.487,984.226 3266.564,980.599C3265.682,977.132 3266.134,973.293 3268.086,969.107C3270.537,963.85 3274.17,960.14 3278.934,957.929C3283.483,955.819 3288.323,954.761 3293.457,954.761C3294.404,954.761 3295.285,955.244 3295.794,956.043C3296.302,956.842 3296.368,957.845 3295.968,958.703C3294.388,962.092 3293.41,964.983 3293.085,967.392C3292.838,969.227 3292.945,970.706 3293.655,971.795C3295.252,974.247 3298.316,975.218 3302.643,975.218C3307.157,975.218 3310.729,974.493 3313.323,972.881C3315.744,971.377 3317.454,969.704 3318.356,967.769C3319.149,966.069 3319.156,964.703 3317.905,963.74L3317.887,963.726C3315.719,962.028 3311.963,960.41 3306.668,958.761L3306.611,958.742C3297.446,955.665 3291.35,951.702 3288.161,947.115C3284.796,942.274 3284.871,935.136 3289.245,925.754C3293.977,915.607 3301.139,908.174 3310.709,903.435C3320.074,898.797 3330.7,896.459 3342.595,896.459C3350.279,896.459 3356.16,897.32 3360.251,898.935L3360.299,898.954C3364.993,900.909 3367.73,903.555 3368.809,906.554C3369.927,909.661 3369.771,912.804 3368.291,915.98C3366.214,920.434 3363.041,923.77 3358.782,925.998C3354.745,928.109 3349.401,929.224 3342.725,929.224C3341.778,929.224 3340.897,928.741 3340.388,927.942C3339.879,927.144 3339.814,926.141 3340.214,925.282C3341.289,922.976 3341.938,920.959 3342.101,919.212C3342.224,917.899 3342.071,916.784 3341.509,915.892C3340.247,913.887 3337.906,913.095 3334.668,913.095C3331.742,913.095 3329.078,913.642 3326.681,914.762C3324.548,915.759 3322.991,917.288 3322.023,919.363C3321.242,921.037 3321.041,922.367 3322.069,923.319L3322.141,923.388C3322.879,924.124 3324.131,924.864 3325.845,925.686C3327.854,926.648 3330.397,927.685 3333.459,928.794C3338.882,930.673 3343.256,932.789 3346.596,935.11C3350.516,937.791 3352.928,941.257 3353.896,945.463C3354.815,949.458 3353.956,954.652 3351.003,960.985C3346.667,970.282 3339.821,977.82 3330.441,983.576C3321.148,989.278 3309.931,992.168 3296.773,992.168Z" style="fill:rgb(10,19,55);"></path>
            </g>
        </g>
    </g>
</svg>